<?xml version="1.0" standalone="no"?>
<!DOCTYPE svg PUBLIC "-//W3C//DTD SVG 20010904//EN"
 "http://www.w3.org/TR/2001/REC-SVG-20010904/DTD/svg10.dtd">
<svg version="1.0" xmlns="http://www.w3.org/2000/svg"
 width="200.000000pt" height="200.000000pt" viewBox="0 0 200.000000 200.000000"
 preserveAspectRatio="xMidYMid meet">
<metadata>
</metadata>
<g transform="translate(0.000000,200.000000) scale(0.100000,-0.100000)"
fill="#313371" stroke="none">
<path d="M265 1708 c2 -7 23 -83 45 -168 l41 -155 412 -412 412 -413 -55 -55
-55 -55 60 -60 60 -60 90 90 90 90 132 -132 133 -133 55 55 55 55 -132 132
-133 133 90 90 90 90 -60 60 -60 60 -60 -60 -60 -60 -411 411 -411 411 -159
49 c-177 54 -175 54 -169 37z"/>
<path d="M1605 1658 l-160 -48 -182 -183 c-101 -100 -183 -186 -183 -192 0 -6
52 -62 115 -125 l115 -115 190 190 189 190 41 153 c23 84 40 159 38 166 -2 8
-49 -2 -163 -36z"/>
<path d="M440 845 l-54 -55 89 -90 90 -90 -133 -133 -132 -132 55 -55 55 -55
133 133 132 132 92 -92 93 -93 55 55 c30 30 55 59 55 64 0 6 -23 34 -52 63
l-52 53 57 58 57 57 -120 120 -120 120 -58 -58 -58 -57 -54 55 c-30 30 -59 55
-65 55 -6 0 -35 -25 -65 -55z"/>
</g>
</svg>
